# xmcd
#
# Track frame offsets: 
#        150
#        8158
#        25166
#        52902
#        67811
#        85788
#        88767
#        110061
#        131475
#        150467
#        166092
#        183603
#        191986
#        209103
#        224899
#        238919
#        259460
#        269728
#        288977
#        305432
#        324738
#        342117
#
# Disc length: 4570 seconds
#
# Revision: 0
# Processed by: cddbd v1.5.1PL0 Copyright (c) Steve Scherf et al.
# Submitted via: ExactAudioCopy v0.95b3
#
DISCID=5411d816
DTITLE=Witchtrap - The First Necromancy
DYEAR=1900
DGENRE=
TTITLE0=Intro(Cry War)
TTITLE1=The Maniac
TTITLE2=Witchtrap
TTITLE3=Torment In Fire
TTITLE4=Sorceress Bitch
TTITLE5=Intro(Final Armageddon)
TTITLE6=Black Like The Night
TTITLE7=Born For Burning(Bathory Cover)
TTITLE8=Total Sacrifice(Violent Force)
TTITLE9=Command Of Hate
TTITLE10=Metal Mania(Bonus Track)
TTITLE11=Intro(Pure Damnation)
TTITLE12=Dark Lord
TTITLE13=Ripping Torment
TTITLE14=Dead Of The Night
TTITLE15=Black Leather Metal Damnation
TTITLE16=Gypsy Ritual
TTITLE17=Face The Evil
TTITLE18=Black Angel
TTITLE19=Desecration Of Evil
TTITLE20=Metal War(Death And Destruction)
TTITLE21=Outro
EXTD=
EXTT0=
EXTT1=
EXTT2=
EXTT3=
EXTT4=
EXTT5=
EXTT6=
EXTT7=
EXTT8=
EXTT9=
EXTT10=
EXTT11=
EXTT12=
EXTT13=
EXTT14=
EXTT15=
EXTT16=
EXTT17=
EXTT18=
EXTT19=
EXTT20=
EXTT21=
PLAYORDER=
